<svg xmlns="http://www.w3.org/2000/svg" version="1.0" viewBox="44.48 84.37 275.4 206.27"><path d="M 187.5 84.375 C 130.546875 84.375 84.375 130.546875 84.375 187.5 C 84.375 244.453125 130.546875 290.625 187.5 290.625 C 244.453125 290.625 290.625 244.453125 290.625 187.5 C 290.625 130.546875 244.453125 84.375 187.5 84.375"/><path fill="#FFF" d="M 187.554688 94.179688 C 135.984375 94.179688 94.179688 135.984375 94.179688 187.554688 C 94.179688 239.121094 135.984375 280.929688 187.554688 280.929688 C 239.121094 280.929688 280.929688 239.121094 280.929688 187.554688 C 280.929688 135.984375 239.121094 94.179688 187.554688 94.179688"/><g><g><g><path d="M 6.820312 -30.96875 C 6.285156 -31.507812 5.460938 -31.820312 4.671875 -31.507812 L 2.308594 -30.566406 C 1.660156 -30.308594 1.234375 -29.492188 1.214844 -28.734375 L 0.0742188 -1.425781 C 0.0859375 -0.730469 0.554688 -0.222656 1.296875 -0.515625 L 7.96875 -3.179688 C 8.941406 -3.566406 9.109375 -4.222656 8.507812 -4.789062 L 2.03125 -11.066406 L 11.25 -14.746094 L 17.730469 -8.46875 C 18.332031 -7.902344 19.042969 -7.59375 19.878906 -7.925781 L 26.179688 -10.441406 C 26.917969 -10.738281 26.910156 -11.429688 26.4375 -11.941406 Z M 10.714844 -15.28125 L 1.261719 -11.511719 L 1.671875 -24.082031 Z M 10.714844 -15.28125" transform="translate(140.725 189.682)"/></g></g></g><g><g><g><path d="M 9.628906 -22.582031 C 5.449219 -22.152344 3.125 -23.535156 2.183594 -25.898438 C 1.167969 -28.445312 2.847656 -30.566406 5.257812 -31.527344 L 6.320312 -31.949219 L 14.367188 -27.265625 C 15.21875 -26.746094 15.820312 -26.449219 16.328125 -26.652344 L 16.652344 -26.78125 C 17.164062 -26.984375 17.171875 -27.363281 16.96875 -27.875 L 14.523438 -33.878906 C 14.226562 -34.621094 13.847656 -34.898438 13.023438 -34.675781 L 7.40625 -33.136719 L 4.765625 -32.082031 C -3.203125 -28.902344 -6.152344 -24.183594 -4.730469 -20.613281 C -3.050781 -16.398438 -0.410156 -14.765625 9.039062 -15.582031 C 13.660156 -15.972656 14.796875 -14.871094 15.832031 -12.277344 C 16.851562 -9.726562 16.28125 -6.707031 13.222656 -5.488281 L 12.296875 -5.121094 L 1.957031 -11.519531 C 1.105469 -12.039062 0.503906 -12.335938 -0.0078125 -12.132812 L -0.332031 -12.003906 C -0.839844 -11.800781 -0.851562 -11.421875 -0.648438 -10.914062 L 2.761719 -2.5 C 3.058594 -1.757812 3.503906 -1.449219 4.261719 -1.699219 L 11.210938 -3.933594 L 13.714844 -4.933594 C 21.175781 -7.90625 24.835938 -12.054688 22.621094 -17.613281 C 20.679688 -22.480469 16.742188 -23.324219 9.628906 -22.582031 Z M 9.628906 -22.582031" transform="translate(168.196 178.726)"/></g></g></g><g><g><g><path d="M 14.652344 -34.089844 C 14.355469 -34.832031 13.894531 -35.183594 13.152344 -34.890625 L -8.253906 -26.351562 C -8.996094 -26.054688 -9.089844 -25.480469 -8.792969 -24.742188 L -5.484375 -16.449219 C -5.28125 -15.9375 -5.015625 -15.667969 -4.503906 -15.871094 L -4.226562 -15.984375 C -3.808594 -16.148438 -3.585938 -16.9375 -3.410156 -17.703125 L -1.230469 -28.402344 L -0.859375 -28.550781 L 8.601562 -4.828125 C 8.898438 -4.085938 9.359375 -3.734375 10.101562 -4.027344 L 15.199219 -6.0625 C 15.9375 -6.355469 16.03125 -6.929688 15.734375 -7.671875 L 6.273438 -31.394531 L 6.644531 -31.542969 L 15.585938 -25.28125 C 16.246094 -24.84375 16.949219 -24.429688 17.363281 -24.59375 L 17.644531 -24.703125 C 18.152344 -24.910156 18.164062 -25.289062 17.960938 -25.796875 Z M 14.652344 -34.089844" transform="translate(196.085 167.603)"/></g></g></g><g><g><g><path d="M 5.726562 -26.003906 C 5.277344 -26.457031 4.585938 -26.722656 3.921875 -26.457031 L 1.9375 -25.667969 C 1.394531 -25.449219 1.035156 -24.765625 1.019531 -24.128906 L 0.0625 -1.199219 C 0.0703125 -0.613281 0.46875 -0.1875 1.089844 -0.433594 L 6.691406 -2.667969 C 7.507812 -2.996094 7.648438 -3.546875 7.144531 -4.023438 L 1.703125 -9.292969 L 9.449219 -12.382812 L 14.886719 -7.109375 C 15.390625 -6.636719 15.992188 -6.378906 16.691406 -6.65625 L 21.984375 -8.765625 C 22.605469 -9.015625 22.597656 -9.597656 22.203125 -10.027344 Z M 8.996094 -12.832031 L 1.058594 -9.667969 L 1.40625 -20.222656 Z M 8.996094 -12.832031" transform="translate(158.228 233.57)"/></g></g></g><g><g><g><path d="M -6.777344 -22.191406 C -6.96875 -22.113281 -7.078125 -21.933594 -7.015625 -21.777344 L -6.988281 -21.699219 C -6.925781 -21.546875 -6.808594 -21.367188 -6.449219 -21.148438 L -4.320312 -19.878906 L 2.710938 -2.253906 C 2.957031 -1.628906 3.347656 -1.335938 3.96875 -1.582031 L 9.53125 -3.800781 C 9.726562 -3.878906 9.757812 -4.027344 9.695312 -4.183594 L 9.617188 -4.378906 C 9.511719 -4.648438 9.410156 -4.789062 9.035156 -5.046875 L 0.0898438 -10.40625 L -3.480469 -19.355469 L 16.171875 -7.621094 C 16.980469 -7.179688 17.625 -7.03125 18.128906 -7.230469 L 19.609375 -7.820312 C 20.230469 -8.070312 20.308594 -8.550781 20.0625 -9.171875 L 12.304688 -28.628906 C 12.054688 -29.25 11.667969 -29.546875 11.042969 -29.296875 L 6.609375 -27.527344 C 6.414062 -27.449219 6.382812 -27.304688 6.445312 -27.148438 L 6.523438 -26.953125 C 6.628906 -26.679688 6.707031 -26.484375 7.105469 -26.285156 L 14.335938 -21.953125 L 17.113281 -14.988281 L 17.035156 -14.957031 L 1.175781 -24.414062 C 0.4375 -24.796875 -0.0078125 -24.890625 -0.589844 -24.65625 Z M -6.777344 -22.191406" transform="translate(181.298 224.37)"/></g></g></g><g><g><g><path d="M 21.085938 -8.410156 C 21.757812 -8.765625 21.789062 -9.140625 21.539062 -9.761719 L 19.523438 -14.820312 C 19.304688 -15.367188 19.058594 -15.539062 18.605469 -15.539062 L 18.140625 -15.578125 C 17.96875 -15.554688 17.796875 -15.53125 17.640625 -15.46875 C 17.328125 -15.34375 17.066406 -15.105469 16.902344 -14.722656 L 14.023438 -5.773438 C 11.066406 -4.59375 6.550781 -8.113281 4.128906 -14.183594 C 1.707031 -20.253906 2.671875 -25.867188 5.628906 -27.046875 L 13.875 -22.535156 C 14.257812 -22.371094 14.574219 -22.363281 14.886719 -22.488281 C 15.042969 -22.550781 15.144531 -22.636719 15.285156 -22.734375 L 15.59375 -23.085938 C 15.921875 -23.398438 15.984375 -23.691406 15.769531 -24.238281 L 13.75 -29.292969 C 13.503906 -29.917969 13.222656 -30.167969 12.492188 -29.964844 L 4.898438 -27.296875 C -1.25 -24.84375 -6.527344 -20.890625 -2.757812 -11.4375 C 1.011719 -1.984375 7.515625 -2.636719 13.664062 -5.089844 Z M 21.085938 -8.410156" transform="translate(204.873 214.967)"/></g></g></g><g><g><g><path d="M -4.597656 -23.058594 C -5.21875 -22.8125 -5.296875 -22.328125 -5.050781 -21.707031 L 2.710938 -2.253906 C 2.957031 -1.628906 3.347656 -1.335938 3.96875 -1.582031 L 19.335938 -7.710938 C 19.882812 -7.929688 20.039062 -8.441406 20.023438 -9.15625 L 20.03125 -16.152344 C 20.03125 -16.375 20.03125 -16.601562 19.773438 -16.679688 L 19.167969 -16.84375 C 19.058594 -16.890625 18.980469 -16.859375 18.902344 -16.828125 C 18.785156 -16.78125 18.699219 -16.65625 18.574219 -16.519531 L 11.066406 -5.042969 L 9.546875 -4.441406 L 5.5 -14.59375 L 13.902344 -17.71875 L 13.53125 -18.652344 L 5.28125 -15.140625 L 1.417969 -24.828125 L 2.933594 -25.433594 L 11.875 -22.460938 C 12.59375 -22.25 13.457031 -22.007812 14 -22.222656 L 14.234375 -22.316406 C 14.855469 -22.566406 14.933594 -23.046875 14.6875 -23.671875 L 12.652344 -28.765625 C 12.40625 -29.390625 12.015625 -29.683594 11.394531 -29.4375 Z M -4.597656 -23.058594" transform="translate(229.343 205.208)"/></g></g></g><g><g><g><path d="M 23.65625 -9.433594 C 24.316406 -9.699219 24.292969 -10.320312 23.757812 -10.648438 L 16.941406 -14.738281 C 16.527344 -14.980469 16.0625 -14.792969 15.632812 -14.621094 C 11.820312 -13.101562 9.707031 -13.65625 8.214844 -14.460938 L 9.148438 -14.832031 C 15.214844 -17.253906 17.886719 -19.714844 15.929688 -24.617188 C 14.132812 -29.132812 10.5 -29.082031 4.429688 -26.660156 L -4.597656 -23.058594 C -5.21875 -22.8125 -5.296875 -22.328125 -5.050781 -21.707031 L 2.710938 -2.253906 C 2.957031 -1.628906 3.347656 -1.335938 3.96875 -1.582031 L 8.910156 -3.554688 C 9.53125 -3.800781 9.609375 -4.285156 9.363281 -4.90625 L 5.917969 -13.542969 L 7.472656 -14.164062 L 16.871094 -7.902344 C 17.585938 -7.464844 18.363281 -7.324219 18.988281 -7.574219 Z M 3.363281 -25.601562 C 5.695312 -26.535156 7.300781 -26.8125 9.238281 -21.949219 C 11.179688 -17.085938 9.980469 -15.796875 7.644531 -14.863281 L 5.699219 -14.089844 L 1.417969 -24.828125 Z M 3.363281 -25.601562" transform="translate(252.88 195.821)"/></g></g></g><g><g><g><path d="M 5.203125 -4.222656 C 5.648438 -3.167969 6.324219 -2.675781 7.375 -3.125 L 15.738281 -6.664062 C 16.792969 -7.109375 16.910156 -7.9375 16.464844 -8.992188 L 7.566406 -30 L 25.621094 -37.253906 L 24.953125 -38.835938 L 7.179688 -30.921875 L -1.941406 -52.457031 L 4.644531 -55.246094 L 20.015625 -50.492188 C 21.246094 -50.160156 22.726562 -49.777344 23.648438 -50.167969 L 24.042969 -50.335938 C 25.097656 -50.78125 25.214844 -51.605469 24.769531 -52.660156 L 21.113281 -61.289062 C 20.667969 -62.339844 19.996094 -62.832031 18.941406 -62.386719 L -12.144531 -49.222656 C -13.199219 -48.777344 -13.3125 -47.953125 -12.867188 -46.898438 Z M 5.203125 -4.222656" transform="translate(112.57 210.936)"/></g></g></g><g><g><g><path d="M 33.6875 -26.457031 C 33.242188 -27.511719 32.566406 -28.003906 31.515625 -27.558594 L 31.117188 -27.390625 C 30.195312 -27 29.441406 -25.667969 28.824219 -24.554688 L 21.539062 -10.207031 L 16.796875 -8.199219 L -1.605469 -51.667969 C -2.050781 -52.71875 -2.726562 -53.210938 -3.78125 -52.765625 L -12.144531 -49.222656 C -13.199219 -48.777344 -13.3125 -47.953125 -12.867188 -46.898438 L 5.203125 -4.222656 C 5.648438 -3.167969 6.324219 -2.675781 7.375 -3.125 L 36.617188 -15.503906 C 37.671875 -15.949219 37.789062 -16.777344 37.339844 -17.832031 Z M 33.6875 -26.457031" transform="translate(136.92 266.059)"/></g></g></g><path stroke-linecap="round" transform="matrix(3.48457 -1.40136 1.3992 3.47919 135.294 199.65)" fill="none" d="M 0.499703 0.000107561 L 50.023984 -0.00018647" stroke="#000"/><path stroke-linecap="round" transform="matrix(3.47362 -1.39285 1.39565 3.48061 140.353 211.336)" fill="none" d="M 0.499954 0.000304626 L 46.195014 -0.000307256" stroke="#000"/><path stroke-linecap="round" transform="matrix(3.51659 -1.34458 1.33927 3.5027 52.953 230.085)" fill="none" d="M 0.499887 0.000255532 L 16.832174 0.0000224414" stroke="#000"/><path stroke-linecap="round" transform="matrix(3.51162 -1.38645 1.37712 3.48798 74.454 236.263)" fill="none" d="M 0.500202 0.000233365 L 12.413961 -0.000235897" stroke="#000"/></svg>